HIERARCHY
ROOT joint_Root
{
	OFFSET 0.0 0.0 0.0
	CHANNELS 6 Xposition Yposition Zposition Zrotation Xrotation Yrotation 
	JOINT Hips
	{
		OFFSET -17.1583 93.1646 452.98
		CHANNELS 6 Xposition Yposition Zposition Zrotation Xrotation Yrotation 
		JOINT Spine
		{
			OFFSET 15.7357 0.0 0.0
			CHANNELS 6 Xposition Yposition Zposition Zrotation Xrotation Yrotation 
			JOINT Chest
			{
				OFFSET 8.98455 -0.406207 0.0
				CHANNELS 6 Xposition Yposition Zposition Zrotation Xrotation Yrotation 
				JOINT Neck
				{
					OFFSET 16.3773 0.0 0.0
					CHANNELS 6 Xposition Yposition Zposition Zrotation Xrotation Yrotation 
					JOINT Head
					{
						OFFSET 6.45672 0.0 0.0
						CHANNELS 6 Xposition Yposition Zposition Zrotation Xrotation Yrotation 
						End Site
						{
							OFFSET 0.0 0.0 0.0
						}
					}
				}
				JOINT Shoulder_L
				{
					OFFSET 12.9942 -0.242716 4.98039
					CHANNELS 6 Xposition Yposition Zposition Zrotation Xrotation Yrotation 
					JOINT UpperArm_L
					{
						OFFSET 5.34809 0.0 0.0
						CHANNELS 6 Xposition Yposition Zposition Zrotation Xrotation Yrotation 
						JOINT LowerArm_L
						{
							OFFSET 24.3286 1.87007e-05 0.0
							CHANNELS 6 Xposition Yposition Zposition Zrotation Xrotation Yrotation 
							JOINT Hand_L
							{
								OFFSET 22.2916 0.0 0.0
								CHANNELS 6 Xposition Yposition Zposition Zrotation Xrotation Yrotation 
								End Site
								{
									OFFSET 0.0 0.0 0.0
								}
							}
						}
					}
				}
				JOINT Shoulder_R
				{
					OFFSET 12.9945 -0.242716 -4.98039
					CHANNELS 6 Xposition Yposition Zposition Zrotation Xrotation Yrotation 
					JOINT UpperArm_R
					{
						OFFSET -5.34813 0.0 0.0
						CHANNELS 6 Xposition Yposition Zposition Zrotation Xrotation Yrotation 
						JOINT LowerArm_R
						{
							OFFSET -24.3289 0.000322201 0.0
							CHANNELS 6 Xposition Yposition Zposition Zrotation Xrotation Yrotation 
							JOINT Hand_R
							{
								OFFSET -22.2915 -0.000108084 0.0
								CHANNELS 6 Xposition Yposition Zposition Zrotation Xrotation Yrotation 
								End Site
								{
									OFFSET 0.0 0.0 0.0
								}
							}
						}
					}
				}
			}
		}
		JOINT UpperLeg_L
		{
			OFFSET -2.19248 -6.46944 0.0
			CHANNELS 6 Xposition Yposition Zposition Zrotation Xrotation Yrotation 
			JOINT LowerLeg_L
			{
				OFFSET 39.0811 0.0 -1.23785e-05
				CHANNELS 6 Xposition Yposition Zposition Zrotation Xrotation Yrotation 
				JOINT Foot_L
				{
					OFFSET 40.9854 0.0 -1.26872e-05
					CHANNELS 6 Xposition Yposition Zposition Zrotation Xrotation Yrotation 
					JOINT Toes_L
					{
						OFFSET 11.7543 0.0 0.0
						CHANNELS 6 Xposition Yposition Zposition Zrotation Xrotation Yrotation 
						End Site
						{
							OFFSET 0.0 0.0 0.0
						}
					}
				}
			}
		}
		JOINT UpperLeg_R
		{
			OFFSET -2.19251 6.46944 0.0
			CHANNELS 6 Xposition Yposition Zposition Zrotation Xrotation Yrotation 
			JOINT LowerLeg_R
			{
				OFFSET -39.0811 -0.00228153 -0.0401928
				CHANNELS 6 Xposition Yposition Zposition Zrotation Xrotation Yrotation 
				JOINT Foot_R
				{
					OFFSET -40.9854 0.0 0.0
					CHANNELS 6 Xposition Yposition Zposition Zrotation Xrotation Yrotation 
					JOINT Toes_R
					{
						OFFSET -11.7543 0.0 0.0
						CHANNELS 6 Xposition Yposition Zposition Zrotation Xrotation Yrotation 
						End Site
						{
							OFFSET 0.0 0.0 0.0
						}
					}
				}
			}
		}
	}
}
MOTION
Frames:	4
Frame Time:	0.0333333
0.000000 0.000000 0.000000 0.000000 0.000000 -0.000000 85.601600 88.128800 227.694000 -75.663500 78.836400 168.683000 15.735700 0.000005 -0.000001 117.020000 84.896200 -115.396000 8.984550 -0.406207 -0.000000 1.269740 4.543140 3.195690 16.377300 -0.000001 -0.000001 1.189260 19.658400 -1.668680 6.456720 -0.000001 -0.000000 -15.317400 25.906300 4.375610 12.994200 -0.242716 4.980390 -93.631300 8.354250 -66.404800 5.348090 -0.000007 -0.000001 -57.350000 -12.711500 5.526370 24.328600 0.000019 0.000005 3.482200 29.348600 -7.068810 22.291600 -0.000001 0.000005 -7.645840 4.929740 8.640820 12.994500 -0.242716 -4.980390 87.256800 8.029200 -71.066600 -5.348130 -0.000001 -0.000004 -56.680000 7.785710 -14.723500 -24.328900 0.000322 -0.000009 4.963490 6.970280 -35.613200 -22.291500 -0.000108 -0.000004 -0.154149 5.382190 -2.360520 -2.192480 -6.469440 -0.000000 171.465000 -0.136962 -25.266900 39.081100 -0.000007 -0.000012 0.424625 -0.592451 35.631000 40.985400 -0.000006 -0.000013 11.735600 -1.922470 -62.061600 11.754300 -0.000000 0.000003 0.002040 0.119362 -11.736400 -2.192510 6.469440 -0.000001 170.653000 5.837700 -178.873000 -39.081100 -0.002282 -0.040193 0.308809 -0.233113 52.661300 -40.985400 0.000008 0.000006 -16.118200 8.242960 -22.549800 -11.754300 -0.000006 -0.000006 0.001543 0.135537 -11.076900
0.000000 0.000000 0.000000 0.000000 0.000000 -0.000000 89.576100 88.403300 225.854000 -80.704200 78.112400 175.671000 15.735700 0.000005 -0.000001 112.801000 84.651100 -111.338000 8.984550 -0.406207 -0.000000 2.050640 4.069950 2.850130 16.377300 -0.000001 -0.000001 3.340770 19.853300 -2.566020 6.456720 -0.000001 -0.000000 -13.852400 26.072300 5.242180 12.994200 -0.242716 4.980390 -93.843500 8.729640 -66.123400 5.348090 -0.000007 -0.000001 -61.371900 -3.207440 1.703120 24.328600 0.000019 0.000005 10.685400 40.113400 -16.316400 22.291600 -0.000001 0.000005 -18.287100 5.293420 0.109285 12.994500 -0.242716 -4.980390 86.944700 8.651050 -70.462700 -5.348130 -0.000001 -0.000004 -56.664200 10.299100 -11.501000 -24.328900 0.000322 -0.000009 4.513690 10.112800 -24.224800 -22.291500 -0.000108 -0.000004 -3.393090 5.356250 -1.558090 -2.192480 -6.469440 -0.000000 169.689000 -3.073180 -19.959100 39.081100 -0.000007 -0.000012 0.510752 -0.714143 35.573500 40.985400 -0.000006 -0.000013 13.340700 0.573244 -65.507900 11.754300 -0.000000 0.000003 0.001595 0.134024 -11.141800 -2.192510 6.469440 -0.000001 169.419000 1.697480 175.907000 -39.081100 -0.002282 -0.040193 0.324879 -0.179900 60.784300 -40.985400 0.000008 0.000006 -16.679200 5.153150 -22.226900 -11.754300 -0.000006 -0.000006 0.001743 0.129720 -11.312800
0.000000 0.000000 0.000000 0.000000 0.000000 -0.000000 93.354700 89.214200 224.233000 -80.963300 75.391700 177.731000 15.735700 0.000005 -0.000001 103.642000 84.791000 -101.859000 8.984550 -0.406207 -0.000000 2.325630 2.370620 3.513950 16.377300 -0.000001 -0.000001 6.008490 19.822800 -3.790090 6.456720 -0.000001 -0.000000 -11.926600 25.998900 7.501800 12.994200 -0.242716 4.980390 -93.915300 8.797900 -65.892600 5.348090 -0.000007 -0.000001 -63.415600 5.097440 -0.459021 24.328600 0.000019 0.000005 17.726000 38.134100 -27.373700 22.291600 -0.000001 0.000005 -21.146100 5.452740 -4.746850 12.994500 -0.242716 -4.980390 86.839700 8.704700 -69.956400 -5.348130 -0.000001 -0.000004 -57.597700 8.828170 -7.522040 -24.328900 0.000322 -0.000009 2.839800 12.790200 -12.637000 -22.291500 -0.000108 -0.000004 -4.809960 5.295950 0.185273 -2.192480 -6.469440 -0.000000 169.650000 -3.095780 -13.291000 39.081100 -0.000007 -0.000012 0.481362 -0.753284 32.580600 40.985400 -0.000006 -0.000013 14.323100 2.307940 -67.213900 11.754300 -0.000000 0.000003 0.001512 0.136300 -11.049400 -2.192510 6.469440 -0.000001 169.639000 -0.169471 171.877000 -39.081100 -0.002282 -0.040193 0.231063 -0.103460 65.583600 -40.985400 0.000008 0.000006 -13.084500 4.156060 -30.577100 -11.754300 -0.000006 -0.000006 0.001147 0.145403 -10.676600
0.000000 0.000000 0.000000 0.000000 0.000000 -0.000000 97.004900 90.255000 222.929000 -78.981800 70.656800 177.258000 15.735700 0.000005 -0.000001 91.118200 84.849700 -88.606600 8.984550 -0.406207 -0.000000 2.535720 0.086337 5.016180 16.377300 -0.000001 -0.000001 8.421870 19.010400 -4.556710 6.456720 -0.000001 -0.000000 -9.990940 25.919100 8.521790 12.994200 -0.242716 4.980390 -93.754200 8.571770 -66.239300 5.348090 -0.000007 -0.000001 -65.133900 8.014750 -1.880570 24.328600 0.000019 0.000005 20.116200 29.732300 -36.455300 22.291600 -0.000001 0.000005 -16.994200 5.367940 -1.982980 12.994500 -0.242716 -4.980390 86.912600 7.904580 -68.583900 -5.348130 -0.000001 -0.000004 -58.205500 2.660730 -2.686520 -24.328900 0.000322 -0.000009 0.984210 13.525700 -4.204500 -22.291500 -0.000108 -0.000004 -3.412690 5.181170 3.169430 -2.192480 -6.469440 -0.000000 170.841000 -1.055260 -6.217650 39.081100 -0.000007 -0.000012 0.385922 -0.725282 28.018300 40.985400 -0.000006 -0.000013 14.925700 4.524930 -68.086700 11.754300 -0.000000 0.000003 0.001158 0.145101 -10.692400 -2.192510 6.469440 -0.000001 171.163000 -0.794190 169.265000 -39.081100 -0.002282 -0.040193 0.143790 -0.062286 66.112000 -40.985400 0.000008 0.000006 -9.464720 -0.960860 -39.333900 -11.754300 -0.000006 -0.000006 0.000947 0.149833 -10.496800
